<?xml version="1.0" encoding="utf-8"?>
<!-- Generator: Adobe Illustrator 20.0.0, SVG Export Plug-In . SVG Version: 6.00 Build 0)  -->
<svg version="1.1" xmlns="http://www.w3.org/2000/svg" xmlns:xlink="http://www.w3.org/1999/xlink" x="0px" y="0px"
	 viewBox="0 0 136 102.8" style="enable-background:new 0 0 136 102.8;" xml:space="preserve">
<style type="text/css">
	.st0{opacity:0.53;fill:#201939;}
	.st1{fill:#FFFFFF;}
	.st2{fill:#EB6E21;}
</style>
<g id="Calque_2">
	<rect x="-0.2" y="0" class="st0" width="136.2" height="102.9"/>
</g>
<g id="Calque_1">
	<path class="st1" d="M34.3,15.4v18h-6v-18h-12v18h-6v-18c0-3.3,2.7-6,6-6h12C31.6,9.4,34.3,12.2,34.3,15.4z M19.3,18.4h6v15h-6
		V18.4z"/>
	<path class="st1" d="M10.3,39.6h6v6h-6V39.6z M19.3,39.6h6v24h-6V39.6z M28.3,39.6h6v6h-6V39.6z"/>
	<path class="st2" d="M10.3,39.6h6v6h-6V39.6z M28.3,39.6h6v6h-6V39.6z"/>
	<path class="st1" d="M10.3,71.7v-4.5h4.5l19.5,19.5v4.5h-4.5L10.3,71.7z M10.3,76.2l6,6v9h-6V76.2z M28.3,76.2v-9h6v15L28.3,76.2z"
		/>
	<rect x="44.2" y="9.4" class="st1" width="1.7" height="81.8"/>
	<g>
		<path class="st1" d="M55.5,20.6h1.9l2.6,7.4h0l2.5-7.4h1.9v13.9h-2V26h0l-2,6h-1l-2-6h0v8.4h-2V20.6z"/>
		<path class="st1" d="M66.2,23.8c0-0.6,0.1-1.1,0.3-1.5c0.2-0.4,0.5-0.8,0.8-1.1c0.3-0.3,0.7-0.5,1.1-0.6c0.4-0.1,0.8-0.2,1.2-0.2
			c0.4,0,0.8,0.1,1.2,0.2c0.4,0.1,0.8,0.4,1.1,0.6c0.3,0.3,0.6,0.6,0.8,1.1c0.2,0.4,0.3,0.9,0.3,1.5v7.3c0,0.6-0.1,1.1-0.3,1.5
			c-0.2,0.4-0.5,0.8-0.8,1.1c-0.3,0.3-0.7,0.5-1.1,0.6c-0.4,0.1-0.8,0.2-1.2,0.2c-0.4,0-0.8-0.1-1.2-0.2c-0.4-0.1-0.8-0.4-1.1-0.6
			c-0.3-0.3-0.6-0.6-0.8-1.1c-0.2-0.4-0.3-0.9-0.3-1.5V23.8z M68.2,31.2c0,0.5,0.1,0.8,0.4,1.1c0.3,0.2,0.6,0.3,0.9,0.3
			c0.4,0,0.7-0.1,0.9-0.3c0.3-0.2,0.4-0.6,0.4-1.1v-7.3c0-0.5-0.1-0.8-0.4-1.1c-0.3-0.2-0.6-0.3-0.9-0.3c-0.4,0-0.7,0.1-0.9,0.3
			c-0.3,0.2-0.4,0.6-0.4,1.1V31.2z"/>
		<path class="st1" d="M74.6,20.6h1.9l3,8.4h0v-8.4h2v13.9h-1.9l-3-8.4h0v8.4h-2V20.6z"/>
	</g>
	<g>
		<path class="st1" d="M56.8,45.5h-2.3v-1.9h6.6v1.9h-2.3v12h-2V45.5z"/>
		<path class="st1" d="M63.1,43.6h1.7l3.1,13.9h-2l-0.6-3h-2.7l-0.6,3h-2L63.1,43.6z M63.9,47.6L63.9,47.6l-1,5h2L63.9,47.6z"/>
		<path class="st1" d="M68.8,43.6h5.9v1.9h-3.9v4.2h3.4v1.9h-3.4v5.9h-2V43.6z"/>
		<path class="st1" d="M76.1,43.6H82v1.9h-3.9v4.2h3.4v1.9h-3.4v5.9h-2V43.6z"/>
	</g>
	<g>
		<path class="st1" d="M55.4,66.3h1.9l3,8.4h0v-8.4h2v13.9h-1.9l-3-8.4h0v8.4h-2V66.3z"/>
		<path class="st1" d="M70.6,77.1c0,0.5-0.1,0.9-0.3,1.3c-0.2,0.4-0.4,0.7-0.7,1c-0.3,0.3-0.6,0.5-1,0.7c-0.4,0.2-0.8,0.3-1.2,0.3
			c-0.4,0-0.9-0.1-1.2-0.3c-0.4-0.2-0.7-0.4-1-0.7c-0.3-0.3-0.5-0.6-0.7-1c-0.2-0.4-0.3-0.8-0.3-1.3V66.3h2v10.6
			c0,0.5,0.1,0.9,0.4,1.1c0.2,0.2,0.5,0.4,0.9,0.4c0.4,0,0.6-0.1,0.9-0.4c0.2-0.2,0.4-0.6,0.4-1.1V66.3h2V77.1z"/>
		<path class="st1" d="M72.5,66.3h1.9l2.6,7.4h0l2.5-7.4h1.9v13.9h-2v-8.4h0l-2,6h-1l-2-6h0v8.4h-2V66.3z"/>
		<path class="st1" d="M83.3,66.3h5.9v1.9h-3.9v4.1h3.4v1.9h-3.4v4.1h3.9v2h-5.9V66.3z M86.7,62.9h2.1l-2.6,2.8h-1.3L86.7,62.9z"/>
		<path class="st1" d="M90.5,66.3h3.2c2.3,0,3.5,1.4,3.5,4.1c0,0.8-0.1,1.5-0.4,2.1c-0.3,0.6-0.7,1-1.3,1.4l2.1,6.3h-2.1l-1.9-5.9
			h-1.2v5.9h-2V66.3z M92.5,72.5h1.1c0.4,0,0.6,0,0.8-0.1c0.2-0.1,0.4-0.2,0.5-0.4c0.1-0.2,0.2-0.4,0.2-0.7c0-0.3,0.1-0.6,0.1-0.9
			c0-0.4,0-0.7-0.1-0.9c0-0.3-0.1-0.5-0.2-0.7c-0.1-0.2-0.3-0.3-0.5-0.4c-0.2-0.1-0.5-0.1-0.9-0.1h-1V72.5z"/>
		<path class="st1" d="M98.9,66.3h2v13.9h-2V66.3z"/>
		<path class="st1" d="M102.7,69.6c0-0.6,0.1-1.1,0.3-1.5c0.2-0.4,0.5-0.8,0.8-1.1c0.3-0.3,0.7-0.5,1.1-0.6c0.4-0.1,0.8-0.2,1.2-0.2
			c0.4,0,0.8,0.1,1.2,0.2c0.4,0.1,0.8,0.4,1.1,0.6c0.3,0.3,0.6,0.6,0.8,1.1c0.2,0.4,0.3,0.9,0.3,1.5v7.3c0,0.5-0.1,1-0.3,1.4l1.2,1
			l-1,1.2l-1.2-1c-0.3,0.2-0.6,0.4-1,0.5c-0.4,0.1-0.7,0.2-1.1,0.2c-0.4,0-0.8-0.1-1.2-0.2c-0.4-0.1-0.8-0.4-1.1-0.6
			c-0.3-0.3-0.6-0.6-0.8-1.1c-0.2-0.4-0.3-0.9-0.3-1.5V69.6z M104.7,76.9c0,0.5,0.1,0.8,0.4,1.1c0.3,0.2,0.6,0.3,0.9,0.3
			c0.2,0,0.3,0,0.4-0.1l-0.9-0.7l1-1.2l0.8,0.6v0v-7.3c0-0.5-0.1-0.8-0.4-1.1c-0.3-0.2-0.6-0.3-0.9-0.3s-0.7,0.1-0.9,0.3
			c-0.3,0.2-0.4,0.6-0.4,1.1V76.9z"/>
		<path class="st1" d="M117.6,77.1c0,0.5-0.1,0.9-0.3,1.3c-0.2,0.4-0.4,0.7-0.7,1c-0.3,0.3-0.6,0.5-1,0.7c-0.4,0.2-0.8,0.3-1.2,0.3
			c-0.4,0-0.9-0.1-1.2-0.3c-0.4-0.2-0.7-0.4-1-0.7c-0.3-0.3-0.5-0.6-0.7-1c-0.2-0.4-0.3-0.8-0.3-1.3V66.3h2v10.6
			c0,0.5,0.1,0.9,0.4,1.1c0.2,0.2,0.5,0.4,0.9,0.4s0.6-0.1,0.9-0.4c0.2-0.2,0.4-0.6,0.4-1.1V66.3h2V77.1z"/>
		<path class="st1" d="M119.5,66.3h5.9v1.9h-3.9v4.1h3.4v1.9h-3.4v4.1h3.9v2h-5.9V66.3z"/>
	</g>
</g>
</svg>
